<svg xmlns="http://www.w3.org/2000/svg" version="1.1" xmlns:xlink="http://www.w3.org/1999/xlink" xmlns:svgjs="http://svgjs.com/svgjs" width="1800" height="377" preserveAspectRatio="none" viewBox="0 0 1800 377"><g mask="url(&quot;#SvgjsMask1892&quot;)" fill="none"><rect width="1800" height="377" x="0" y="0" fill="rgba(21, 67, 96, 1)"></rect><path d="M0,429.117C105.273,429.352,211.293,522.181,305.862,475.93C399.603,430.084,426.996,308.081,453.728,207.211C477.418,117.817,475.808,23.969,449.101,-64.571C424.835,-145.017,365.974,-205.945,310.157,-268.753C255.04,-330.773,201.859,-395.261,125.784,-428.38C43.432,-464.232,-50.044,-489.221,-135.937,-462.96C-221.538,-436.789,-264.952,-346.809,-332.631,-288.226C-414.422,-217.428,-565.674,-190.459,-575.235,-82.706C-584.973,27.043,-421.411,71.359,-373.334,170.496C-327.066,265.902,-392.146,414.185,-304.984,474.565C-218.746,534.305,-104.909,428.883,0,429.117" fill="#123851"></path><path d="M1800 802.494C1880.225 793.905 1960.09 774.961 2024.6779999999999 726.606 2086.76 680.127 2113.218 604.781 2153.005 538.212 2198.309 462.41200000000003 2288.967 395.888 2274.3940000000002 308.79200000000003 2259.771 221.393 2156.729 181.949 2084.749 130.264 2027.633 89.25099999999998 1962.642 69.55000000000001 1899.145 39.34300000000002 1821.376 2.3460000000000036 1752.701-89.69400000000002 1669.554-67.25799999999998 1586.835-44.93700000000001 1579.114 72.38299999999998 1526.399 139.924 1477.341 202.779 1402.847 242.233 1370.961 315.314 1332.883 402.586 1296.121 502.726 1329.1390000000001 592.035 1362.518 682.318 1454.243 738.992 1542.12 778.27 1622.5720000000001 814.229 1712.378 811.875 1800 802.494" fill="#184e6f"></path></g><defs><mask id="SvgjsMask1892"><rect width="1800" height="377" fill="#ffffff"></rect></mask></defs></svg>